<svg id="Слой_1" data-name="Слой 1" xmlns="http://www.w3.org/2000/svg" viewBox="0 0 351.37 324.64"><defs><style>.cls-1{fill:#ae2156;}</style></defs><path class="cls-1" d="M183.91,231H308a40.23,40.23,0,0,1,40.23,40.23v0a53.44,53.44,0,0,1-53.44,53.44H277.57A93.67,93.67,0,0,1,183.91,231v0a0,0,0,0,1,0,0Z"/><path class="cls-1" d="M279.41,120h72a0,0,0,0,1,0,0v0A95.36,95.36,0,0,1,256,215.34h-72a0,0,0,0,1,0,0v0A95.36,95.36,0,0,1,279.41,120Z"/><path class="cls-1" d="M56.55,231H167.46a0,0,0,0,1,0,0v0A93.67,93.67,0,0,1,73.8,324.64H43.34A40.23,40.23,0,0,1,3.11,284.41v0A53.44,53.44,0,0,1,56.55,231Z"/><path class="cls-1" d="M0,120H72a95.36,95.36,0,0,1,95.36,95.36v0a0,0,0,0,1,0,0h-72A95.36,95.36,0,0,1,0,120v0A0,0,0,0,1,0,120Z"/><path class="cls-1" d="M210,77.24h70.95a0,0,0,0,1,0,0V88.92a66.87,66.87,0,0,1-66.87,66.87H143.12a0,0,0,0,1,0,0V144.11A66.87,66.87,0,0,1,210,77.24Z" transform="translate(-31.12 182.01) rotate(-54.03)"/></svg>