<svg id="Слой_1" data-name="Слой 1" xmlns="http://www.w3.org/2000/svg" viewBox="0 0 400 400"><defs><style>.cls-1{fill:#ae2156;}</style></defs><path class="cls-1" d="M208.22,268.65H332.34a40.23,40.23,0,0,1,40.23,40.23v0a53.44,53.44,0,0,1-53.44,53.44H301.89a93.67,93.67,0,0,1-93.67-93.67v0a0,0,0,0,1,0,0Z"/><path class="cls-1" d="M303.73,157.66h72a0,0,0,0,1,0,0v0A95.36,95.36,0,0,1,280.33,253h-72a0,0,0,0,1,0,0v0A95.36,95.36,0,0,1,303.73,157.66Z"/><path class="cls-1" d="M80.87,268.65H191.78a0,0,0,0,1,0,0v0a93.67,93.67,0,0,1-93.67,93.67H67.66a40.23,40.23,0,0,1-40.23-40.23v0a53.44,53.44,0,0,1,53.44-53.44Z"/><path class="cls-1" d="M24.32,157.66h72A95.36,95.36,0,0,1,191.63,253v0a0,0,0,0,1,0,0h-72a95.36,95.36,0,0,1-95.36-95.36v0A0,0,0,0,1,24.32,157.66Z"/><path class="cls-1" d="M210,77.24h70.95a0,0,0,0,1,0,0V88.92a66.87,66.87,0,0,1-66.87,66.87H143.12a0,0,0,0,1,0,0V144.11A66.87,66.87,0,0,1,210,77.24Z" transform="translate(-6.8 219.69) rotate(-54.03)"/></svg>